<?xml version="1.0" encoding="utf-8"?>
<!-- Generator: Adobe Illustrator 23.0.1, SVG Export Plug-In . SVG Version: 6.00 Build 0)  -->
<svg version="1.1" id="Livello_1" xmlns="http://www.w3.org/2000/svg" xmlns:xlink="http://www.w3.org/1999/xlink" x="0px" y="0px"
	 width="98px" height="21.8px" viewBox="0 0 98 21.8" style="enable-background:new 0 0 98 21.8;" xml:space="preserve">
<path d="M0.8,1.4L7.8,21h1.7l5.3-15.3H15L20.1,21h1.7l6.9-19.6h-1.3l-5.8,16.4h-0.1L16.1,1.4h-1.2L9.3,17.6H9.2L3.4,1.4H0.8z
	 M41.6,15.2l2.7,5.8H47L37.8,1.4h-1.4L28.2,21h1.3l2.5-5.8H41.6z M41,13.9h-8.5l4-9.4h0.1L41,13.9z M55.1,21V2.9h7.5V1.4H45v1.5h7.5
	V21H55.1z"/>
<path d="M1.8,1.4L8.8,21h1.7l5.3-15.3H16L21.1,21h1.7l6.9-19.6h-1.3l-5.8,16.4h-0.1L17.1,1.4h-1.2l-5.6,16.3h-0.1L4.4,1.4H1.8z
	 M42.6,15.2l2.7,5.8H48L38.8,1.4h-1.4L29.2,21h1.3l2.5-5.8H42.6z M42,13.9h-8.5l4-9.4h0.1L42,13.9z M56.1,21V2.9h7.5V1.4H46v1.5h7.5
	V21H56.1z"/>
<path d="M61.8,18.8c0-0.5,0.1-0.8,0.3-1c0.2-0.2,0.5-0.3,0.8-0.3c0.2,0,0.4,0.1,0.5,0.2c0.1,0.1,0.2,0.3,0.2,0.5
	c0,0.3-0.1,0.5-0.4,0.8c0.3,0.5,1,0.8,2,0.8c0,0,0,0,0,0c0.6,0,1.1-0.1,1.5-0.2c0.4-0.2,0.7-0.4,0.9-0.6c0.2-0.3,0.3-0.5,0.4-0.7
	c0.1-0.2,0.1-0.4,0.1-0.6c0-0.4-0.2-0.7-0.5-1c-0.3-0.2-0.8-0.4-1.4-0.5c-0.6-0.1-1-0.2-1.1-0.3c-0.4-0.1-0.8-0.4-1.1-0.8
	c-0.3-0.4-0.4-0.8-0.4-1.3c0-0.3,0.1-0.6,0.2-1c0.1-0.4,0.3-0.7,0.6-1.1c0.3-0.4,0.7-0.7,1.2-1c0.5-0.3,1.2-0.4,1.9-0.4
	c0.8,0,1.4,0.2,2,0.6c0.5,0.4,0.8,0.8,0.8,1.4c0,0.4-0.1,0.7-0.3,1s-0.5,0.3-0.7,0.3c-0.2,0-0.4-0.1-0.5-0.2
	c-0.1-0.1-0.2-0.3-0.2-0.5c0-0.2,0.1-0.4,0.3-0.7v0c-0.4-0.4-0.9-0.5-1.5-0.5c-0.6,0-1,0.1-1.3,0.4c-0.3,0.2-0.6,0.5-0.6,0.7
	c-0.1,0.2-0.1,0.4-0.1,0.6c0,0.4,0.1,0.7,0.4,0.9c0.3,0.2,0.7,0.3,1.3,0.4c0.6,0.1,1,0.2,1.3,0.4c1,0.5,1.4,1.2,1.4,2.2
	c0,0.2,0,0.5-0.1,0.7c-0.1,0.3-0.2,0.6-0.4,1c-0.2,0.4-0.5,0.7-0.8,1c-0.3,0.3-0.8,0.6-1.4,0.8c-0.6,0.2-1.3,0.3-2,0.3
	c-1,0-1.8-0.2-2.4-0.6C62.1,20,61.8,19.5,61.8,18.8z M72.8,17.5c0-1.1,0.2-2.2,0.7-3.3c0.5-1.1,1.2-2,2.2-2.8c1-0.7,2.1-1.1,3.3-1.1
	c1.1,0,2,0.3,2.6,1c0.7,0.6,1,1.5,1,2.7c0,0.8-0.1,1.6-0.4,2.4c-0.3,0.8-0.7,1.6-1.2,2.3c-0.5,0.7-1.2,1.3-2,1.7
	c-0.8,0.4-1.7,0.7-2.6,0.7c-1.1,0-2-0.3-2.6-0.9C73.2,19.5,72.8,18.6,72.8,17.5z M74.5,17.5c0,0.8,0.2,1.4,0.6,1.8
	c0.4,0.3,1,0.5,1.5,0.5c0.8,0,1.5-0.2,2.1-0.7c0.6-0.5,1.1-1,1.4-1.7c0.3-0.7,0.5-1.3,0.6-1.9c0.1-0.6,0.2-1.1,0.2-1.5
	c0-0.8-0.2-1.4-0.7-1.8c-0.4-0.3-0.9-0.5-1.6-0.5c-0.7,0-1.4,0.2-2,0.6c-0.6,0.4-1,0.9-1.3,1.6c-0.3,0.6-0.6,1.3-0.7,1.9
	C74.6,16.4,74.5,16.9,74.5,17.5z M84.4,13.9c0,0,0-0.2,0.1-0.4c0.1-0.2,0.1-0.5,0.3-0.9c0.1-0.4,0.3-0.7,0.5-1.1
	c0.2-0.3,0.5-0.6,0.8-0.9c0.3-0.2,0.7-0.4,1.1-0.4c0.1,0,0.3,0,0.5,0.1c0.2,0,0.4,0.1,0.6,0.2c0.2,0.1,0.4,0.3,0.6,0.6
	c0.2,0.3,0.3,0.6,0.4,1c1.1-1.2,2.3-1.8,3.6-1.8c0.7,0,1.4,0.2,1.9,0.5s0.8,1,0.8,1.9c0,0.8-0.3,2-0.9,3.6c-0.6,1.6-0.9,2.5-0.9,2.7
	c0,0.5,0.2,0.7,0.6,0.7c0.1,0,0.3,0,0.5-0.1c0.2-0.1,0.4-0.3,0.6-0.6c0.3-0.3,0.5-0.8,0.6-1.4c0.1-0.2,0.1-0.3,0.2-0.3
	c0.1,0,0.3,0,0.6,0c0.4,0,0.6,0.1,0.6,0.3c0,0.2-0.1,0.6-0.4,1.1c-0.2,0.5-0.6,1.1-1.2,1.6c-0.6,0.5-1.2,0.8-1.9,0.8
	c-0.6,0-1-0.2-1.4-0.5c-0.3-0.4-0.5-0.8-0.5-1.3c0-0.3,0.3-1.3,0.8-2.9c0.6-1.6,0.8-2.7,0.8-3.4c0-0.9-0.4-1.3-1.3-1.3c0,0,0,0,0,0
	c-0.7,0-1.4,0.3-2,0.8c-0.6,0.5-1.1,1.2-1.5,2c-0.4,0.8-0.7,1.6-0.9,2.4c-0.2,0.8-0.4,1.6-0.6,2.3c-0.2,0.7-0.3,1.2-0.3,1.3
	c-0.2,0.4-0.5,0.5-0.8,0.5c-0.4,0-0.6-0.2-0.6-0.6c0-0.1,0-0.3,0.1-0.6l1.7-6.6c0.1-0.4,0.1-0.6,0.1-0.7c0-0.3-0.1-0.5-0.3-0.7
	c-0.2-0.1-0.3-0.2-0.5-0.2c-0.3,0-0.5,0.2-0.7,0.5c-0.2,0.3-0.3,0.7-0.4,1.1c-0.1,0.4-0.2,0.6-0.2,0.7c-0.1,0.1-0.2,0.1-0.4,0.1
	h-0.4C84.6,14.1,84.4,14,84.4,13.9z"/>
</svg>
