<svg width="40" height="40" viewBox="0 0 40 40" fill="none" xmlns="http://www.w3.org/2000/svg">
<circle cx="20" cy="20" r="20" fill="#81ACEC" fill-opacity="0.22"/>
<path d="M28.0113 24.2105C28.7958 23.6677 29.3874 22.8896 29.7009 21.9886C30.0143 21.0876 30.0333 20.1103 29.7551 19.1978C29.4769 18.2853 28.9159 17.4848 28.1531 16.9119C27.3903 16.339 26.4652 16.0234 25.5113 16.0105H23.7113C23.409 14.9908 22.8784 14.0534 22.1596 13.2694C21.4408 12.4855 20.5529 11.8756 19.5632 11.4862C18.5734 11.0967 17.508 10.9379 16.4477 11.0218C15.3874 11.1057 14.3602 11.4302 13.4441 11.9704C12.528 12.5107 11.747 13.2527 11.1605 14.1399C10.574 15.0272 10.1974 16.0364 10.0593 17.091C9.92116 18.1456 10.0252 19.2178 10.3634 20.2261C10.7017 21.2345 11.2652 22.1525 12.0113 22.9105M20.0113 20.0105V29.0105M20.0113 20.0105L24.0113 24.0105M20.0113 20.0105L16.0113 24.0105" stroke="#81ACEC" stroke-width="2" stroke-linecap="round" stroke-linejoin="round"/>
</svg>
