<svg width="48" height="48" viewBox="0 0 48 48" fill="none" xmlns="http://www.w3.org/2000/svg">
<rect width="48" height="48" rx="24" fill="#D6E2F5"/>
<path d="M32.8614 29.6698C33.7265 29.067 34.3789 28.2029 34.7245 27.2024C35.0701 26.2019 35.0911 25.1166 34.7843 24.1033C34.4775 23.09 33.8589 22.2011 33.0178 21.565C32.1766 20.9288 31.1565 20.5783 30.1047 20.564H28.1198C27.7864 19.4316 27.2012 18.3906 26.4086 17.5201C25.616 16.6495 24.6369 15.9723 23.5455 15.5399C22.4541 15.1074 21.2792 14.931 20.11 15.0242C18.9408 15.1174 17.8081 15.4777 16.7979 16.0776C15.7876 16.6776 14.9264 17.5015 14.2797 18.4868C13.633 19.472 13.2177 20.5928 13.0654 21.7638C12.9131 22.9349 13.0278 24.1255 13.4007 25.2453C13.7737 26.365 14.3952 27.3845 15.2179 28.2262M24.0397 35V25.0058M24.0397 25.0058L28.4506 29.4477M24.0397 25.0058L19.6288 29.4477" stroke="#7CABF1" stroke-width="2" stroke-linecap="round" stroke-linejoin="round"/>
</svg>
