<svg width="28" height="19" viewBox="0 0 28 19" fill="none" xmlns="http://www.w3.org/2000/svg">
<path d="M10 19C10 14.3056 13.5817 10.5 18 10.5C22.4183 10.5 26 14.3056 26 19M22.2353 6.275C22.2353 8.63602 20.3391 10.55 18 10.55C15.6609 10.55 13.7647 8.63602 13.7647 6.275C13.7647 3.91398 15.6609 2 18 2C20.3391 2 22.2353 3.91398 22.2353 6.275Z" stroke="black" stroke-width="2.5"/>
<path d="M1 19C1 15.4101 3.68629 12.5 7 12.5C8.53671 12.5 9.93849 13.1258 11 14.1551M10.1765 9.26912C10.1765 11.0746 8.75432 12.5382 7 12.5382C5.24568 12.5382 3.82353 11.0746 3.82353 9.26912C3.82353 7.46363 5.24568 6 7 6C8.75432 6 10.1765 7.46363 10.1765 9.26912Z" stroke="black" stroke-opacity="0.85" stroke-width="2"/>
</svg>
