<svg width="710" height="708" viewBox="0 0 710 708" fill="none" xmlns="http://www.w3.org/2000/svg">
<path fill-rule="evenodd" clip-rule="evenodd" d="M521.414 530.253C568.381 517.336 614.42 504.675 643.667 466.666C696.706 397.736 729.09 298.923 697.503 217.889C678.247 168.487 629.154 146.5 578.872 123.981C547.772 110.052 516.217 95.9199 490.986 74.9714C466.624 54.7453 447.459 28.7588 428.518 3.07794C427.761 2.05134 427.004 1.02523 426.248 0H0V578.744C4.34154 586.178 9.32078 593.338 15.0544 600.176C69.6003 665.226 154.679 714.634 239.249 707.237C288.858 702.898 323.122 666.303 358.179 628.86C380.798 604.701 403.748 580.19 431.363 563.763C458.702 547.5 490.262 538.82 521.414 530.253Z" fill="#81ACEC" fill-opacity="0.25"/>
</svg>
