<svg xmlns="http://www.w3.org/2000/svg" xmlns:xlink="http://www.w3.org/1999/xlink" viewBox="0 0 3048.51 1673.99"><defs><style>.cls-1,.cls-6{fill:#fff;}.cls-2{fill:#e0eafa;}.cls-10,.cls-11,.cls-2,.cls-3,.cls-4,.cls-5,.cls-6,.cls-8{fill-rule:evenodd;}.cls-3{fill:#d2e4f9;}.cls-4{fill:#c4dbf7;}.cls-5{fill:#f6f0ff;}.cls-7{fill:#67577f;}.cls-8{fill:#56677c;}.cls-9{mask:url(#mask);}.cls-10{fill:#f0f7ff;}.cls-11,.cls-12{fill:#f3f8ff;}</style><mask id="mask" x="2205.8" y="508.97" width="208.42" height="156.47" maskUnits="userSpaceOnUse"><g id="mask0"><path class="cls-1" d="M2223.73,603.31l5.19,25.94a45,45,0,0,0,52.88,35.32l132.43-26.26-14.71-62.23a87.13,87.13,0,0,0-96.79-66.27q-8.86,1.23-19,3.28A76.69,76.69,0,0,0,2223.73,603.31Z"/></g></mask></defs><title>404_bg</title><g id="Livello_2" data-name="Livello 2"><path class="cls-2" d="M3152.84,1805.83c-193.84,158-403.12,282.22-640.7,360.37-280,92.1-590.76,260-856.29,132-265.77-128.12-246.64-522.13-430.92-752.54-218.38-273-710.31-364-740.71-712.31C454.6,494.06,877.09,302,1093.42,38.91c189-229.9,304.85-543.7,581.44-653.64,274-108.89,573.08,25.19,862.81,79.6,278.45,52.29,577.95,56.12,799.57,232.6,226,180,362.56,455,419.52,738.18,54.51,270.9,2.31,552-109.16,804.82C3544.52,1474.36,3351,1644.31,3152.84,1805.83Z"/><path class="cls-3" d="M2854.4,1556.66c-142.67,116.3-296.69,207.7-471.54,265.22-206.09,67.79-434.79,191.38-630.22,97.18-195.6-94.29-181.52-384.28-317.14-553.85-160.73-201-522.78-267.91-545.15-524.25-21.8-249.74,289.14-391.08,448.35-584.72C1477.82,87,1563.07-143.92,1766.64-224.83c201.62-80.13,421.77,18.54,635,58.59C2606.57-127.76,2827-124.94,2990.11,5,3156.43,137.39,3257,339.8,3298.87,548.23c40.12,199.38,1.7,406.24-80.34,592.33C3142.66,1312.7,3000.2,1437.78,2854.4,1556.66Z"/><path class="cls-4" d="M2706.79,1365.41c-103.38,84.29-215,150.53-341.71,192.2-149.35,49.13-315.08,138.69-456.7,70.43s-131.54-278.48-229.83-401.36c-116.47-145.62-378.84-194.15-395-379.91-15.8-181,209.53-283.4,324.91-423.73,100.82-122.62,162.59-290,310.11-348.62,146.11-58.07,305.65,13.44,460.18,42.46,148.5,27.89,308.24,29.93,426.44,124.06,120.52,96,193.37,242.66,223.75,393.7,29.07,144.48,1.23,294.38-58.22,429.24C2915.69,1188.63,2812.45,1279.27,2706.79,1365.41Z"/></g><g id="Livello_1" data-name="Livello 1"><path class="cls-5" d="M2467,543a2.94,2.94,0,0,1,2.8-2.09h0a2.12,2.12,0,0,1,2.11,2.14v.75h0a2.57,2.57,0,0,1-2.51,2.56H2469a1.37,1.37,0,0,1-.35,0,2.25,2.25,0,0,1-1.93-2.53A8.45,8.45,0,0,1,2467,543Zm10,48a2.94,2.94,0,0,1,2.8-2.09h0a2.12,2.12,0,0,1,2.11,2.14v.75h0a2.57,2.57,0,0,1-2.51,2.56H2479a1.37,1.37,0,0,1-.35,0,2.25,2.25,0,0,1-1.93-2.53A8.45,8.45,0,0,1,2477,591Zm-296.93-35a7.08,7.08,0,0,1,.31.75,2.27,2.27,0,0,1-1.63,2.77,1.8,1.8,0,0,1-.32.06l-.43.05a2.56,2.56,0,0,1-2.81-2.24q0-.11-.09-.72a2.2,2.2,0,0,1,1.9-2.43A3,3,0,0,1,2180.05,556.06Zm-3.18,43.34a8.71,8.71,0,0,1,.35.86,2.6,2.6,0,0,1-1.86,3.17,2.38,2.38,0,0,1-.37.06l-.49.06a2.92,2.92,0,0,1-3.21-2.56c0-.08,0-.35-.1-.82a2.49,2.49,0,0,1,2.17-2.77A3.39,3.39,0,0,1,2176.87,599.4Zm102.19-146.23a5.09,5.09,0,0,1,4.88-3.63,3.74,3.74,0,0,1,3.75,3.74v1.26a4.39,4.39,0,0,1-4.34,4.41h-.72a5.25,5.25,0,0,1-.56,0,3.92,3.92,0,0,1-3.38-4.39C2278.71,454.39,2278.84,453.93,2279.06,453.17Z"/><path class="cls-6" d="M2229.73,840.93q3.46,27.09,5.5,31c2,3.91,12.5,7.5,14.5,7.5q2,0,148,12.5a29.19,29.19,0,0,0,19-6.5c2.15-1.75,1.94-4.25,3-8s2.05-11.53,3-23.5l-25-13Z"/><path class="cls-7" d="M2177.28,553.84a2.92,2.92,0,0,0-2.55,3.26q.08.61.09.72a3.29,3.29,0,0,0,3.63,2.89l.43,0,.43-.08a3,3,0,0,0,2.17-3.68,7,7,0,0,0-.35-.87A3.7,3.7,0,0,0,2177.28,553.84Zm2.48,2.8.27.64a1.52,1.52,0,0,1-1.1,1.85.78.78,0,0,1-.21,0l-.43.05a1.8,1.8,0,0,1-2-1.58l-.09-.72a1.43,1.43,0,0,1,1.24-1.59A2.21,2.21,0,0,1,2179.76,556.64Zm-6.1,40.29a3.24,3.24,0,0,0-2.82,3.61c0,.47.09.74.1.82a3.65,3.65,0,0,0,4,3.21l.49-.05a4,4,0,0,0,.48-.09,3.35,3.35,0,0,0,2.4-4.07,8.53,8.53,0,0,0-.39-1A4.15,4.15,0,0,0,2173.66,596.93Zm2.91,3.05c.19.43.31.71.32.75a1.85,1.85,0,0,1-1.33,2.25l-.26,0-.49.05a2.16,2.16,0,0,1-2.38-1.9c0-.08,0-.35-.1-.82a1.74,1.74,0,0,1,1.51-1.94A2.63,2.63,0,0,1,2176.57,600Zm293.23-60.17a3.7,3.7,0,0,0-3.52,2.63,9.52,9.52,0,0,0-.25.93,3,3,0,0,0,2.58,3.38,2.26,2.26,0,0,0,.45,0h.38a3.31,3.31,0,0,0,3.24-3.31h0c0-.07,0-.32,0-.75a2.88,2.88,0,0,0-2.86-2.89Zm-2.28,3.76s.08-.29.2-.7a2.2,2.2,0,0,1,2.08-1.56h0a1.39,1.39,0,0,1,1.37,1.39c0,.42,0,.67,0,.75h0a1.8,1.8,0,0,1-1.77,1.81H2469l-.23,0A1.5,1.5,0,0,1,2467.52,543.57Zm12.28,44.24a3.7,3.7,0,0,0-3.52,2.63,9.52,9.52,0,0,0-.25.93,3,3,0,0,0,2.58,3.38,2.26,2.26,0,0,0,.45,0h.38a3.31,3.31,0,0,0,3.24-3.31h0c0-.07,0-.32,0-.75a2.88,2.88,0,0,0-2.86-2.89Zm-2.28,3.76s.08-.29.2-.7a2.2,2.2,0,0,1,2.08-1.56h0a1.39,1.39,0,0,1,1.37,1.39c0,.42,0,.67,0,.75h0a1.8,1.8,0,0,1-1.77,1.81H2479l-.23,0A1.5,1.5,0,0,1,2477.52,591.57ZM2277.91,454.63a4.68,4.68,0,0,0,4,5.24,4.92,4.92,0,0,0,.67,0h.72a5.16,5.16,0,0,0,5.08-5.17v-1.25a4.51,4.51,0,0,0-4.5-4.5,5.84,5.84,0,0,0-5.6,4.17C2278.07,454,2277.94,454.43,2277.91,454.63Zm6-4.15a3,3,0,0,1,3,3v1.25a3.65,3.65,0,0,1-3.6,3.67h-.72a3.44,3.44,0,0,1-.46,0,3.17,3.17,0,0,1-2.73-3.55c0-.09.13-.54.35-1.25A4.33,4.33,0,0,1,2283.91,450.48Z"/><path class="cls-7" d="M2233.91,588.17l-6.34,13.26-50.14-1.5,0,1.5,51.13,1.53,7.08-14.83,29.77-.71,0-1.5-30.6.73-5.2-20.44-49.19-9.11-.27,1.47,48.24,8.94,5.26,20.67Z"/><path class="cls-8" d="M2342.23,652.43l72.5-14-32.5,87.5h-28Z"/><path class="cls-6" d="M2251.73,741.43l-115.81-27.51a56,56,0,0,0-46.07,9.33l-80.45,59A56,56,0,0,0,1986.7,823l-11,138.44h26L2017,832.82a44,44,0,0,1,16.86-29.68L2107,746.9a28,28,0,0,1,21.78-5.41l119.93,20.44Z"/><path class="cls-7" d="M2252.57,740.86l-116.48-27.67a56.75,56.75,0,0,0-46.68,9.45l-80.45,59a56.75,56.75,0,0,0-23,41.27l-11,139.25h27.47l15.39-129.28a43.27,43.27,0,0,1,16.58-29.16l73.12-56.25a27.23,27.23,0,0,1,21.19-5.26l120.69,20.57Zm-4.47,20.2-119.18-20.31a28.73,28.73,0,0,0-22.36,5.55l-73.11,56.25a44.76,44.76,0,0,0-17.16,30.18l-15.23,127.95h-24.52l10.91-137.63a55.23,55.23,0,0,1,22.4-40.18l80.44-59a55.24,55.24,0,0,1,45.46-9.2L2250.89,742Z"/><path class="cls-8" d="M2249.28,878.66l-7.55-30.23,142.5,9.5,1.63,4.23,11.87,29c8.57-.36,14.42-1.82,17.53-4.31,2.78-2.22,4.92-10.55,6.29-24.81l-21.82-16.41,11-117.7,23.5,42-10.75,87V857c-1.35,17.91-3.71,28.17-7.28,31s-9.62,4.28-18.57,4.65l.1.26-148-12.5-.07-.25a18.5,18.5,0,0,1-17.68-16l-3-22.55,1.49-.2,3,22.55A17,17,0,0,0,2249.28,878.66Z"/><path class="cls-1" d="M2223.73,603.31l5.19,25.94a45,45,0,0,0,52.88,35.32l132.43-26.26-14.71-62.23a87.13,87.13,0,0,0-96.79-66.27q-8.86,1.23-19,3.28A76.69,76.69,0,0,0,2223.73,603.31Z"/><g class="cls-9"><path class="cls-10" d="M2222.73,649.93l104.88-17.48a20,20,0,0,0,16.65-21.33l-2.05-25.56a22,22,0,0,0-23.7-20.17,24.22,24.22,0,0,0-2.52.35l-109.26,21.69Z"/><path class="cls-7" d="M2222.17,650.28l105.56-17.59A20.76,20.76,0,0,0,2345,610.56L2343,585a22.69,22.69,0,0,0-27.11-20.49l-110,21.84Zm-14.52-62.77L2316.14,566a20,20,0,0,1,2.43-.34,21.25,21.25,0,0,1,22.89,19.48l2.05,25.56a19.24,19.24,0,0,1-16,20.53l-104.21,17.37Z"/></g><path class="cls-7" d="M2284.94,487.29l-.21-28.36a.75.75,0,1,0-1.5,0l.21,29.11a.76.76,0,0,0,.75.75h20.27L2293,510.69a.75.75,0,1,0,1.33.69l12-23a.74.74,0,0,0-.67-1.09Z"/><path class="cls-7" d="M2223,603.46l5.19,25.94a45.76,45.76,0,0,0,53.76,35.91L2414.38,639a.74.74,0,0,0,.58-.9l-14.71-62.24a87.89,87.89,0,0,0-97.63-66.83q-8.88,1.23-19,3.28A77.46,77.46,0,0,0,2223,603.46Zm58.66,60.37a44.25,44.25,0,0,1-52-34.72l-5.19-26a76,76,0,0,1,59.43-89.34q10.11-2,18.94-3.27a86.39,86.39,0,0,1,96,65.7l14.53,61.47Z"/><path class="cls-6" d="M2244.45,725.74l-16.4,106.45a14,14,0,0,0,11.7,16c.39.06.79.1,1.18.13l143.48,9.77a14,14,0,0,0,14.77-11.72L2416.29,741A14,14,0,0,0,2404.71,725c-.39-.06-.79-.11-1.19-.14l-144.18-10.9A14,14,0,0,0,2244.45,725.74Z"/><path class="cls-7" d="M2243.71,725.62l-16.4,106.45a14.76,14.76,0,0,0,12.33,16.83c.41.06.83.11,1.24.13l143.48,9.78a14.74,14.74,0,0,0,15.56-12.35L2417,741.13a14.75,14.75,0,0,0-12.2-16.92c-.41-.07-.83-.12-1.25-.15l-144.18-10.9A14.75,14.75,0,0,0,2243.71,725.62Zm1.48.23a13.25,13.25,0,0,1,14.1-11.2l144.18,10.91a10.67,10.67,0,0,1,1.12.13,13.25,13.25,0,0,1,11,15.2l-17.11,105.33a13.24,13.24,0,0,1-14,11.09L2241,847.54c-.37,0-.74-.07-1.11-.13a13.25,13.25,0,0,1-11.08-15.11Z"/><path class="cls-6" d="M1969.6,960.16a15.77,15.77,0,0,0,14.93,16.57l.77,0,8.57,0a16,16,0,0,0,16-15.9v-.07a16.53,16.53,0,0,0-16-16.49l-6.81-.2A16.93,16.93,0,0,0,1969.6,960.16Z"/><path class="cls-6" d="M2159.36,1148.72l73.37-35.5L2140,1047.93l-72.22,29.25"/><path class="cls-7" d="M1969.1,960.64A16.52,16.52,0,0,0,1984.74,978l.81,0,8.56,0a16.71,16.71,0,0,0,16.76-16.65v-.08a17.28,17.28,0,0,0-16.77-17.24l-6.82-.2A17.69,17.69,0,0,0,1969.1,960.64Zm1.5.08a16.19,16.19,0,0,1,16.63-15.35l6.82.2a15.78,15.78,0,0,1,15.32,15.74v.07a15.21,15.21,0,0,1-15.25,15.16l-8.57,0c-.24,0-.49,0-.73,0A15,15,0,0,1,1970.6,960.72Z"/><path class="cls-6" d="M1964.73,1148.72l-78.5,34.21q-68.74-74-68.5-76t81-30Z"/><path class="cls-6" d="M1972.73,1247.14l177-1.21,10-97h-195l-40.5,17.5,5,40.5Z"/><path class="cls-11" d="M2036.73,1148.93v58l31-19,29,19v-58Z"/><path class="cls-7" d="M1972,1247.06l-43.47-39.76-5.44-39.81-37,16.14-69.6-77.23,82.51-29.84,66.31,71.41h193.94l72.07-34.87-91.4-64.32-71.63,29.65-.57-1.39,72.39-30,94.15,66.26L2160.45,1149l-10,97.44L1972,1247.69Zm-.18-2.2-7.76-95.23-39.55,17.23,5.43,39.7Zm-6.27-95.39,7.88,96.71,175.63-1.2,9.85-95.51Zm-67-71.16L1819,1107.05l67.39,74.77,77-33.57Z"/><path class="cls-7" d="M2096.32,1207.56a.75.75,0,0,0,1.16-.63v-58a.76.76,0,0,0-.75-.75h-60a.75.75,0,0,0-.75.75v58a.75.75,0,0,0,1.14.64l30.59-18.75Zm-.34-57.88v55.87l-27.84-18.24a.75.75,0,0,0-.8,0l-29.86,18.3v-55.91Z"/><path class="cls-1" d="M2238.47,604.42a4.5,4.5,0,0,1,8.84-1.72l2.67,13.74a4.5,4.5,0,1,1-8.83,1.72Z"/><path class="cls-1" d="M2308.91,595.59a5,5,0,0,1,9.93-1.22l1.7,13.9a5,5,0,0,1-9.92,1.22Z"/><path class="cls-7" d="M2313.76,590l-1,.12a4.5,4.5,0,0,0-3.92,5l1.83,14.88a4.49,4.49,0,0,0,5,3.92l1-.12a4.49,4.49,0,0,0,3.91-5l-1.82-14.89A4.51,4.51,0,0,0,2313.76,590Zm.18,1.49a3,3,0,0,1,3.35,2.61l1.83,14.89a3,3,0,0,1-2.62,3.34l-1,.12a3,3,0,0,1-3.34-2.61l-1.83-14.89a3,3,0,0,1,2.61-3.34Zm-.43.56a3,3,0,0,0-2.61,3.34l1.7,13.89a3,3,0,1,0,6-.73l-1.71-13.89A3,3,0,0,0,2313.51,592Zm6.83-1.87a.75.75,0,0,0,.82-.67.74.74,0,0,0-.66-.82l-13.85-1.47a.76.76,0,0,0-.83.67.75.75,0,0,0,.67.82ZM2236,600.63l13-5a.75.75,0,0,0-.54-1.4l-13,5a.75.75,0,1,0,.54,1.4Zm39.55,19.76a10.82,10.82,0,0,1,7.58-4.1c5.18-.54,6.33-.4,10.33,1.33a.75.75,0,1,0,.59-1.37c-4.24-1.85-5.66-2-11.08-1.45a12.31,12.31,0,0,0-8.59,4.64.75.75,0,1,0,1.17.95Zm-32.92-21.83-1,.15a4.51,4.51,0,0,0-3.74,5.15l2.35,14.82a4.5,4.5,0,0,0,5.15,3.74l1-.16a4.5,4.5,0,0,0,3.74-5.15l-2.35-14.81A4.49,4.49,0,0,0,2242.63,598.56Zm.24,1.48a3,3,0,0,1,3.43,2.49l2.34,14.82a3,3,0,0,1-2.49,3.43l-1,.16a3,3,0,0,1-3.43-2.5l-2.35-14.81a3,3,0,0,1,2.5-3.43Zm-.42.57A3,3,0,0,0,2240,604l2.19,13.83a3,3,0,1,0,5.92-.94l-2.19-13.82A3,3,0,0,0,2242.45,600.61Z"/><path class="cls-8" d="M2158.73,1148.72h-194l-66-71.5h169Zm-208.92,45.71c-3.45,1-7.85-3.8-9.83-10.7s-.79-13.3,2.66-14.29,7.86,3.8,9.84,10.7S1953.26,1193.44,1949.81,1194.43Z"/><path class="cls-6" d="M2343.27,882.38l27.2,156.55-9.24,175.5-27.77,25a4,4,0,0,0,2.68,7h87.59q-18.69-141.12-30.26-210.5-11.17-67-30.63-156.7a8,8,0,0,0-7.82-6.3h-2.55c-.68,0-1.41.05-2.21.13a8,8,0,0,0-7.06,8.84A4,4,0,0,0,2343.27,882.38Z"/><path class="cls-7" d="M2360.26,1214.09l-27.54,24.82a4.74,4.74,0,0,0,3.18,8.27h87.59a.74.74,0,0,0,.75-.84q-18.7-141.13-30.27-210.53-11.17-67-30.63-156.73a8.76,8.76,0,0,0-8.55-6.9h-2.56a21.09,21.09,0,0,0-2.29.14,8.75,8.75,0,0,0-7.73,9.66c0,.18.05.36.08.53L2369.48,1039Zm0,.31.25-.52-.23.21Zm62.4,31.28H2335.9a3.25,3.25,0,0,1-2.17-5.66l27.77-25a.77.77,0,0,0,.24-.52L2371,1039v-.17l-27.2-156.54c0-.15-.05-.3-.07-.44a7.26,7.26,0,0,1,6.41-8,18.08,18.08,0,0,1,2.12-.13h2.56a7.24,7.24,0,0,1,7.08,5.71q19.46,89.65,30.62,156.66Q2404,1105.22,2422.64,1245.68Z"/><path class="cls-11" d="M2363.83,1037.32a14.1,14.1,0,0,1,12.31-15.66l5.11-.62a14.37,14.37,0,0,1,15.95,12.18c0,.1,0,.2,0,.3a13.72,13.72,0,0,1-11.92,15.31l-5.86.73h-.08A14,14,0,0,1,2363.83,1037.32Zm9-1.36a6.17,6.17,0,0,0,6.86,5.38l2.74-.33a6,6,0,0,0,5.19-6.63.88.88,0,0,0,0-.17,6.35,6.35,0,0,0-7-5.36l-2.4.29a6.12,6.12,0,0,0-5.37,6.79Z"/><path class="cls-7" d="M2362.72,1037.77a14.84,14.84,0,0,1,13-16.5l5.11-.62a15.12,15.12,0,0,1,16.79,12.82c0,.1,0,.21,0,.31a14.47,14.47,0,0,1-12.57,16.15l-5.86.73h-.08A14.75,14.75,0,0,1,2362.72,1037.77Zm1.49-.18a13.25,13.25,0,0,0,14.72,11.59h.07l5.87-.73a13,13,0,0,0,11.26-14.48l0-.27a13.63,13.63,0,0,0-15.13-11.55l-5.11.62A13.34,13.34,0,0,0,2364.21,1037.59Zm7.5-1.22a6.87,6.87,0,0,1,6-7.62l2.4-.29a7.1,7.1,0,0,1,7.84,6c0,.06,0,.13,0,.2a6.7,6.7,0,0,1-5.85,7.46l-2.74.33a6.92,6.92,0,0,1-7.69-6Zm7.52,4.58,2.74-.33a5.21,5.21,0,0,0,4.54-5.79.78.78,0,0,0,0-.16,5.59,5.59,0,0,0-6.18-4.72l-2.4.29a5.37,5.37,0,0,0-4.71,6v0A5.43,5.43,0,0,0,2379.23,1041Z"/><path class="cls-6" d="M2303.08,879.06l-49.35,158.19,72.91,134.18-4.54,46.64a4,4,0,0,0,6.58,3.43l67.46-57.57-16-16-102.85-109.74,44.82-155.65a7.54,7.54,0,0,0-5.15-9.32,7.74,7.74,0,0,0-2.08-.29,18.19,18.19,0,0,1-2.18-.13A9,9,0,0,0,2303.08,879.06Z"/><path class="cls-7" d="M2326.33,1171.79l-.09-.43,0,.23ZM2321.7,1218a4.75,4.75,0,0,0,7.81,4.07L2397,1164.5a.75.75,0,0,0,0-1.1l-16-16L2278.48,1038l44.7-155.24a8.28,8.28,0,0,0-5.66-10.25,8.5,8.5,0,0,0-2.29-.32,18.7,18.7,0,0,1-2.09-.12,9.75,9.75,0,0,0-10.43,6.78L2253.36,1037a.74.74,0,0,0,.06.58l72.8,134Zm6.84,2.93a3.25,3.25,0,0,1-5.34-2.79l4.54-46.63a.8.8,0,0,0-.09-.43l-72.76-133.9,49.25-157.89a8.25,8.25,0,0,1,8.83-5.74,19.4,19.4,0,0,0,2.26.13,7,7,0,0,1,1.87.26,6.78,6.78,0,0,1,4.64,8.39L2276.92,1038a.76.76,0,0,0,.17.72L2380,1148.45l15.44,15.44Z"/><path class="cls-11" d="M2250,1041.94a14.17,14.17,0,0,1,10.85-16.5l5.33-1.18a13.65,13.65,0,0,1,16.21,10,13.34,13.34,0,0,1-9.72,16.15l-6.71,1.67-.69.16A13.06,13.06,0,0,1,2250,1041.94Zm9-1.53a5.75,5.75,0,0,0,6.79,4.48l.16,0,3.32-.78a5.57,5.57,0,0,0,4.16-6.69c0-.05,0-.1,0-.15a6,6,0,0,0-7.06-4.37l-2.73.57A5.92,5.92,0,0,0,2259,1040.41Z"/><path class="cls-7" d="M2249.35,1042.39a14.91,14.91,0,0,1,11.42-17.37l5.33-1.19a14.41,14.41,0,0,1,17.1,10.61,14.1,14.1,0,0,1-10.27,17.06l-6.7,1.67c-.24.06-.49.12-.74.16A13.79,13.79,0,0,1,2249.35,1042.39Zm1.47-.28a12.29,12.29,0,0,0,14.39,9.75l.66-.15,6.7-1.67a12.58,12.58,0,0,0,9.17-15.24,12.9,12.9,0,0,0-15.32-9.5l-5.33,1.18A13.42,13.42,0,0,0,2250.82,1042.11Zm7.51-1.23a6.68,6.68,0,0,1,5.18-7.88l2.73-.56a6.78,6.78,0,0,1,7.94,4.91c0,.06,0,.11,0,.17a6.32,6.32,0,0,1-4.71,7.6l-3.33.77-.17,0A6.5,6.5,0,0,1,2258.33,1040.88Zm1.47-.31a5,5,0,0,0,5.9,3.89l.14,0,3.33-.78a4.81,4.81,0,0,0,3.59-5.79l0-.13a5.29,5.29,0,0,0-6.19-3.83l-2.72.57A5.17,5.17,0,0,0,2259.8,1040.57Z"/><path class="cls-11" d="M2152.7,944.15a11.06,11.06,0,0,1,10.67-7.92,8.29,8.29,0,0,1,8.24,8.25c0,1.48,0,2.35,0,2.6v0a9.39,9.39,0,0,1-9.32,9.47h-1.82A8.49,8.49,0,0,1,2152,947Q2152,946.5,2152.7,944.15Zm-45-109a11.06,11.06,0,0,1,10.67-7.92,8.29,8.29,0,0,1,8.24,8.25c0,1.48,0,2.35,0,2.6v0a9.39,9.39,0,0,1-9.32,9.47h-1.82A8.49,8.49,0,0,1,2107,838Q2107,837.5,2107.7,835.15Zm464-22a11,11,0,0,1,10.66-7.92,8.3,8.3,0,0,1,8.25,8.25c0,1.48,0,2.35,0,2.6v0a9.4,9.4,0,0,1-9.33,9.47h-1.82a8.71,8.71,0,0,1-1.14-.06A8.55,8.55,0,0,1,2571,816,28.8,28.8,0,0,1,2571.71,813.15Zm-98,165a11,11,0,0,1,10.66-7.92,8.3,8.3,0,0,1,8.25,8.25c0,1.48,0,2.35,0,2.6v0a9.4,9.4,0,0,1-9.33,9.47h-1.82a8.71,8.71,0,0,1-1.14-.06A8.55,8.55,0,0,1,2473,981,28.8,28.8,0,0,1,2473.71,978.15Zm129,60a11,11,0,0,1,10.66-7.92,8.3,8.3,0,0,1,8.25,8.25c0,1.48,0,2.35,0,2.6v0a9.4,9.4,0,0,1-9.33,9.47h-1.82a8.71,8.71,0,0,1-1.14-.06,8.55,8.55,0,0,1-7.4-9.55A28.8,28.8,0,0,1,2602.71,1038.15Zm-108-388a11,11,0,0,1,10.66-7.92,8.3,8.3,0,0,1,8.25,8.25c0,1.48,0,2.35,0,2.6v0a9.4,9.4,0,0,1-9.33,9.47h-1.82a8.71,8.71,0,0,1-1.14-.06A8.55,8.55,0,0,1,2494,653,28.8,28.8,0,0,1,2494.71,650.15Zm-591,256a11.06,11.06,0,0,1,10.67-7.92,8.29,8.29,0,0,1,8.24,8.25c0,1.48,0,2.35,0,2.6v0a9.39,9.39,0,0,1-9.32,9.47h-1.82A8.49,8.49,0,0,1,1903,909Q1903,908.5,1903.7,906.15Zm120-218a11.06,11.06,0,0,1,10.67-7.92,8.29,8.29,0,0,1,8.24,8.25c0,1.48,0,2.35,0,2.6v0a9.39,9.39,0,0,1-9.32,9.47h-1.82A8.49,8.49,0,0,1,2023,691Q2023,690.5,2023.7,688.15Z"/><path class="cls-11" d="M1970.42,1033.28a33,33,0,1,1,38.33-1.68l-12.33-15.75a13,13,0,1,0-15.1.66Z"/><path class="cls-7" d="M1971.11,1034.63l-.63-.4a33.75,33.75,0,1,1,39.2-1.72l-.59.46L1995.84,1016l.59-.46a12.26,12.26,0,1,0-14.23.62l.63.41Zm-.44-2.08,10.09-15.52a13.75,13.75,0,1,1,17.17-.75l11.41,14.58a32.25,32.25,0,1,0-38.67,1.69Z"/><path class="cls-6" d="M2437.2,782.29,2626.33,708a8,8,0,0,1,10.37,4.52,8.11,8.11,0,0,1,.44,1.53l37.71,213.38a5,5,0,0,1-6.85,5.49l-236.07-98v24l238.36,104a24,24,0,0,0,33.31-25.75l-37.87-239.54a29,29,0,0,0-33.17-24.12,29.55,29.55,0,0,0-6.82,2l-197.27,83.89a11,11,0,0,0-6.66,10.95,27.51,27.51,0,0,0,.62,4.12l0,.13a11,11,0,0,0,13.22,8.2A10.26,10.26,0,0,0,2437.2,782.29Z"/><path class="cls-7" d="M2437.77,783l189.14-74.29a7.24,7.24,0,0,1,9.39,4.1,7.37,7.37,0,0,1,.4,1.39l37.71,213.38a4.25,4.25,0,0,1-5.82,4.67l-237.11-98.43v25.61l238.81,104.19a24.76,24.76,0,0,0,34.35-26.55l-37.87-239.55a29.73,29.73,0,0,0-41-22.73l-197.27,83.89a11.75,11.75,0,0,0-7.12,11.69,29.14,29.14,0,0,0,.64,4.24.79.79,0,0,1,0,.13,11.75,11.75,0,0,0,14.12,8.76A10.44,10.44,0,0,0,2437.77,783ZM2433,836.05l235,97.57a5.74,5.74,0,0,0,7.86-6.31l-37.71-213.38a8.92,8.92,0,0,0-.47-1.68,8.74,8.74,0,0,0-11.34-4.94l-189.14,74.28a10,10,0,0,1-1.41.44,10.25,10.25,0,0,1-12.32-7.64.79.79,0,0,0,0-.13,27.33,27.33,0,0,1-.6-4,10.25,10.25,0,0,1,6.21-10.2l197.26-83.89a28.93,28.93,0,0,1,6.65-1.91,28.25,28.25,0,0,1,32.31,23.5l37.86,239.54a23.24,23.24,0,0,1-32.26,24.94L2433,858.44Z"/><path class="cls-11" d="M2439.25,926.75a33,33,0,1,1,37-10.25l-15.55-12.58a13,13,0,1,0-14.56,4Z"/><path class="cls-7" d="M2439.66,927.79l-.7-.26a33.75,33.75,0,1,1,37.8-10.49l-.47.59-16.72-13.52.47-.59a12.25,12.25,0,1,0-13.72,3.81l.7.26Zm5.45-19.33a13.75,13.75,0,1,1,16.55-4.59l14.4,11.64a32.25,32.25,0,1,0-37.29,10.35Z"/><path class="cls-6" d="M2444.57,869.33A15.77,15.77,0,0,0,2458,851.51c0-.25-.08-.51-.12-.76l-1.61-8.41a16,16,0,0,0-18.67-12.68l-.07,0a16.52,16.52,0,0,0-13.13,18.89l1.11,6.73A16.93,16.93,0,0,0,2444.57,869.33Z"/><path class="cls-7" d="M2444.5,869.85a16.54,16.54,0,0,0,14.05-18.67c0-.27-.08-.53-.14-.8l-1.6-8.41a16.72,16.72,0,0,0-19.55-13.27l-.07,0a17.28,17.28,0,0,0-13.73,19.75l1.11,6.73A17.7,17.7,0,0,0,2444.5,869.85Zm-.21-1.49a16.19,16.19,0,0,1-18.24-13.4l-1.11-6.74a15.77,15.77,0,0,1,12.54-18l.06,0a15.21,15.21,0,0,1,17.79,12.08l1.61,8.42q.07.36.12.72A15,15,0,0,1,2444.29,868.36Z"/><path class="cls-12" d="M2269.13,730l124.52,9a7,7,0,0,1,6.48,7.48c0,.15,0,.29,0,.44l-12,88.67a7,7,0,0,1-7.6,6l-126.42-12a7,7,0,0,1-6.31-7.63,3.87,3.87,0,0,1,.06-.46l13.89-85.68A7,7,0,0,1,2269.13,730Zm-14.39,92.59,126.44,12.17,12.11-88.77-124.67-9Zm48.05-36.61a9,9,0,1,1,9-9A9,9,0,0,1,2302.79,785.93ZM2289,796.67l64.84,4.53-.28,4-64.84-4.53Zm55-7.77-8.19-9.75,9.76-8.18,8.18,9.75Z"/><path class="cls-8" d="M2634.73,673.93q9.58-.87,14.5,1.5t12.5,11.5l-26,23.5a21.85,21.85,0,0,0-3-2,15.34,15.34,0,0,0-3.5-1Zm-535.46,44.49a47.06,47.06,0,0,1,12-4.49,110.35,110.35,0,0,1,17-1.5l-6.5,29-3.5.5-3.47,1.14ZM1987.12,819.5a84.61,84.61,0,0,1,4.11-13.57,110.21,110.21,0,0,1,7.6-13.59l22.9,25.09-1.6,3.15-1.06,3.5Zm717.11,120.93q-2.57,12.72-6.5,17t-15.5,7l-12-31a9.16,9.16,0,0,0,3.54-1.6,7.19,7.19,0,0,0,1.46-2.9Z"/><path class="cls-7" d="M2410.75,584.61l9.48,14.51,56.39-8.43.22,1.48-57.33,8.57-10.14-15.49-34.56,3.43a.75.75,0,0,1-.15-1.5l34.68-3.44,3-23.88,54.13-17.14a.75.75,0,0,1,.94.48.77.77,0,0,1-.49.95L2413.74,561Z"/><path class="cls-7" d="M2269.16,812.68a.75.75,0,0,1-.67-.87l9.5-58.5a.75.75,0,0,1,.79-.63l99.51,7.5a.75.75,0,0,1,.68.86l-8.5,60a.75.75,0,0,1-.8.64Zm10.2-58.45-9.26,57,99,8.86,8.29-58.5Zm-10.63-24.81,124.52,9a7.76,7.76,0,0,1,7.18,8.29c0,.16,0,.32,0,.48l-12,88.68a7.75,7.75,0,0,1-8.41,6.67l-126.43-12a7.75,7.75,0,0,1-7-8.45c0-.17,0-.34.07-.5l13.89-85.69A7.75,7.75,0,0,1,2268.73,729.42Zm-.11,1.5a6.26,6.26,0,0,0-6.62,5.23l-13.89,85.69c0,.13,0,.27-.06.41a6.26,6.26,0,0,0,5.63,6.81l126.43,12a6.24,6.24,0,0,0,6.78-5.39l12-88.67c0-.13,0-.26,0-.39a6.26,6.26,0,0,0-5.78-6.69Zm-15.2,92.51,14.12-87.08,126.14,9.12-12.3,90.28Zm126.67,10.68L2392,746.85,2268.8,738l-13.64,84.14Zm-77.36-47.43a9.75,9.75,0,1,1,9.75-9.75A9.74,9.74,0,0,1,2302.73,786.68Zm0-1.5a8.25,8.25,0,1,0-8.25-8.25A8.25,8.25,0,0,0,2302.73,785.18Zm-14.48,10.69,66.34,4.64-.38,5.48-66.34-4.64Zm1.22,4.09,63.35,4.43.17-2.49-63.35-4.43Zm54.39-10-9.15-10.9,10.9-9.14,9.14,10.9Zm8.78-9.33-7.22-8.6-8.6,7.22,7.22,8.6Z"/><path class="cls-7" d="M2372.73,1215.18v0Zm0-1.5a.75.75,0,0,1,0,1.5h-11.5a.75.75,0,0,1,0-1.5h23a.75.75,0,0,1,0,1.5h-11.5A.75.75,0,0,1,2372.73,1213.68ZM2337,1164.26l-1-1.15Zm0,0-9.25,7.75a.75.75,0,1,1-1-1.15l9.25-7.75,9.25-7.75a.75.75,0,1,1,1,1.15Z"/></g></svg>